HIERARCHY
ROOT Hips
{
  OFFSET -331.093 83.8371 -317.828
  CHANNELS 6 Xposition Yposition Zposition Zrotation Xrotation Yrotation
  JOINT LeftUpLeg
  {
    OFFSET 8.64259 1.95398 -2.38835
    CHANNELS 3 Zrotation Xrotation Yrotation
    JOINT LeftLeg
    {
      OFFSET 43.7702 0 0
      CHANNELS 3 Zrotation Xrotation Yrotation
      JOINT LeftFoot
      {
        OFFSET 40.6238 0 0
        CHANNELS 3 Zrotation Xrotation Yrotation
        JOINT LeftToeBase
        {
          OFFSET 12.7242 0 0
          CHANNELS 3 Zrotation Xrotation Yrotation
          End Site
          {
            OFFSET 0 0 0
          }
        }
      }
    }
  }
  JOINT RightUpLeg
  {
    OFFSET -8.2249 1.95398 -2.59336
    CHANNELS 3 Zrotation Xrotation Yrotation
    JOINT RightLeg
    {
      OFFSET 43.5653 0 0
      CHANNELS 3 Zrotation Xrotation Yrotation
      JOINT RightFoot
      {
        OFFSET 40.6238 0 0
        CHANNELS 3 Zrotation Xrotation Yrotation
        JOINT RightToeBase
        {
          OFFSET 12.7242 0 0
          CHANNELS 3 Zrotation Xrotation Yrotation
          End Site
          {
            OFFSET 0 0 0
          }
        }
      }
    }
  }
  JOINT Spine
  {
    OFFSET 0.165834 0.87714 6.61349
    CHANNELS 3 Zrotation Xrotation Yrotation
    JOINT Spine1
    {
      OFFSET 7.38963 1.71661e-005 0
      CHANNELS 3 Zrotation Xrotation Yrotation
      JOINT Spine2
      {
        OFFSET 11.9445 1.14441e-005 0
        CHANNELS 3 Zrotation Xrotation Yrotation
        JOINT Spine3
        {
          OFFSET 14.7254 4.19617e-005 0
          CHANNELS 3 Zrotation Xrotation Yrotation
          JOINT Spine4
          {
            OFFSET 10.9679 0 0
            CHANNELS 3 Zrotation Xrotation Yrotation
            JOINT RightShoulder
            {
              OFFSET 2.46616 -1.6653 3.69651
              CHANNELS 3 Zrotation Xrotation Yrotation
              JOINT RightArm
              {
                OFFSET 13.0012 0 0
                CHANNELS 3 Zrotation Xrotation Yrotation
                JOINT RightForeArm
                {
                  OFFSET 28.7848 1.62311e-005 0
                  CHANNELS 3 Zrotation Xrotation Yrotation
                  JOINT RightHand
                  {
                    OFFSET 26.5688 1.62095e-005 0
                    CHANNELS 3 Zrotation Xrotation Yrotation
                    End Site
                    {
                      OFFSET 0 0 0
                    }
                  }
                }
              }
            }
            JOINT LeftShoulder
            {
              OFFSET 2.38034 -1.29275 -3.7523
              CHANNELS 3 Zrotation Xrotation Yrotation
              JOINT LeftArm
              {
                OFFSET 16.3182 6.07031e-005 0
                CHANNELS 3 Zrotation Xrotation Yrotation
                JOINT LeftForeArm
                {
                  OFFSET 27.0901 0 0
                  CHANNELS 3 Zrotation Xrotation Yrotation
                  JOINT LeftHand
                  {
                    OFFSET 24.5451 1.51738e-005 0
                    CHANNELS 3 Zrotation Xrotation Yrotation
                    End Site
                    {
                      OFFSET 0 0 0
                    }
                  }
                }
              }
            }
            JOINT Neck
            {
              OFFSET 5.0226 -0.0266342 0
              CHANNELS 3 Zrotation Xrotation Yrotation
              JOINT Head
              {
                OFFSET 6.69364 2.86102e-005 0
                CHANNELS 3 Zrotation Xrotation Yrotation
                End Site
                {
                  OFFSET 0 0 0
                }
              }
            }
          }
        }
      }
    }
  }
}
MOTION
Frames:	7
Frame Time:	0.0416667
-325.818 78.4967 -350.666 31.3904 -12.1883 -77.4879 4.10698 38.1379 -101.074 -46.3003 8.5081 -1.26064 40.7316 -19.8535 51.3221 167.427 -16.5559 -72.4287 92.1617 72.2129 -171.018 -2.40458 -13.822 2.00926 -16.2528 20.0064 40.3509 121.224 -7.66547 -3.99781 0.5557 -5.54395 -80.7811 37.1337 7.23729 16.8131 25.3784 7.96024 16.4906 3.68787 1.94359 18.163 23.7005 1.9436 18.163 133.054 -68.4623 -43.283 92.2601 8.79497 16.043 -68.5783 1.48958 -0.0308019 6.24704 -3.20365 -43.1981 29.5916 68.6297 -41.2939 10.4014 11.7702 -160.165 -55.9854 12.8178 -0.0722851 1.64888 -1.53708 -58.0322 -17.3243 -35.8632 12.9875 38.1809 -39.1276 -11.3056 
-326.087 78.6485 -350.974 30.494 -12.0839 -77.4465 3.9331 38.3966 -101.423 -46.7648 4.69496 -1.01578 42.0617 -17.4641 50.1483 168.81 -17.461 -72.5757 94.8571 71.9449 -173.572 -2.37828 -14.768 2.01164 -17.1503 19.9953 41.4274 121.324 -8.50218 -4.61841 0.632205 -5.49196 -80.7957 37.0285 7.35824 16.7266 25.275 8.07743 16.3989 3.57334 2.08412 18.1157 23.586 2.08411 18.1157 133.323 -68.361 -42.9195 92.4866 8.9447 16.2296 -68.9069 0.720496 -0.0307939 6.34608 -3.21739 -42.6367 30.6664 68.6799 -41.9505 7.45179 16.7304 -160.199 -54.0089 22.1935 -0.0749791 0.89106 -0.882283 -58.6763 -18.0445 -36.0272 12.1205 39.2683 -39.0068 -10.2112 
-326.837 79.0893 -351.834 27.9888 -11.8055 -77.305 3.38263 39.1261 -102.374 -47.9401 -4.77896 -0.41522 45.43 -11.9558 46.1413 174.025 -19.5081 -73.5798 101.974 71.0028 179.71 -2.29786 -17.6469 2.02447 -19.4091 20.0326 44.4906 121.569 -10.9305 -6.41654 0.843898 -5.34816 -80.8471 36.74 7.68653 16.4685 24.9917 8.3945 16.1264 3.25698 2.47223 17.9651 23.2696 2.47223 17.9651 133.996 -68.0468 -41.9857 93.0885 9.39619 16.7868 -69.862 -1.39289 -0.0308006 6.67848 -3.25904 -41.0693 33.2299 68.793 -43.507 -1.82279 31.908 -158.103 -43.4588 41.7882 -0.0794287 -1.27341 0.505931 -59.6354 -19.9907 -36.4486 9.74496 42.2111 -38.6009 -7.20764 
-327.971 79.9245 -353.151 24.1917 -11.4135 -77.0165 2.34794 40.1899 -103.618 -49.817 -15.8092 0.225575 49.6738 -6.97126 37.9233 108.326 -62.293 -112.405 111.338 69.1028 170.952 -2.14837 -22.7323 2.07131 -22.1152 20.3646 49.3351 121.813 -14.8857 -9.34975 1.15812 -5.13409 -80.9509 36.317 8.15876 16.038 24.5771 8.8481 15.6751 2.78783 3.04751 17.693 22.8005 3.04751 17.693 134.843 -67.5021 -40.7454 93.9305 10.1645 17.7204 -71.4133 -4.50359 -0.0308869 7.33364 -3.3249 -38.711 36.1483 68.9171 -45.2552 -23.9091 54.9858 -143.665 -20.7618 53.5838 -0.0512482 -4.51724 2.03169 -58.2457 -22.7734 -37.0086 6.26381 46.4042 -37.8195 -2.81242 
-329.418 81.3464 -354.854 19.4443 -10.9753 -76.5344 1.04424 39.6336 -103.614 -58.948 -23.4835 0.563738 55.7152 -13.8033 5.60473 -84.029 22.1193 -100.356 120.648 66.1329 162.398 -1.89015 -30.456 2.19851 -24.2328 21.4782 55.7797 121.741 -20.3794 -13.5094 1.53754 -4.87202 -81.1185 35.8096 8.70619 15.4459 24.0804 9.36989 15.0587 2.2174 3.74115 17.2904 22.2301 3.74116 17.2904 135.675 -66.7309 -39.4206 94.8657 11.2627 19.0359 -73.5139 -8.43363 -0.0311281 8.36606 -3.39238 -35.8332 38.4067 69.0254 -46.5732 -84.9299 67.2973 -87.4201 5.01825 49.7666 0.0116913 -6.14945 2.45456 -50.5905 -26.0092 -37.6169 2.05554 51.2288 -36.6065 2.4309 
-331.058 80.8028 -356.619 14.0846 -10.5578 -75.8395 9.29701 50.6531 -102.544 -53.3676 -22.6521 0.206094 43.5115 -25.9856 -100.06 -25.6643 -43.7528 18.7074 130.26 61.8522 154.218 -1.43139 -41.0293 2.50504 -24.0385 24.2127 62.5035 120.725 -27.4352 -19.2571 1.94512 -4.58151 -81.349 35.2588 9.26717 14.7244 23.5418 9.89961 14.312 1.59115 4.4852 16.7704 21.6038 4.48519 16.7704 136.39 -65.7618 -38.1402 95.7509 12.6796 20.73 -76.06 -13.4088 -0.0316544 9.74386 -3.42698 -32.7281 39.4065 69.113 -47.105 -127.198 55.6645 -45.7779 21.6731 35.7821 0.0393381 1.83867 -0.456572 -36.8794 -29.4095 -38.2266 -2.61645 56.191 -34.9752 8.05683 
-332.827 80.1291 -358.431 8.43288 -10.2221 -74.9478 9.33881 56.8503 -105.053 -46.445 -29.9937 -0.652887 41.9321 -23.503 -126.064 3.70352 -52.1323 87.0469 137.952 56.7367 148.173 -0.495898 -54.4726 3.28462 -21.5101 29.0881 68.9648 117.549 -35.9338 -27.5043 2.34833 -4.27787 -81.6289 34.6933 9.79383 13.9236 22.9891 10.3916 13.4873 0.944156 5.21967 16.1669 20.9568 5.21966 16.1669 136.956 -64.6329 -36.9564 96.4482 14.3684 22.7936 -78.8617 -20.3264 -0.0328362 11.3603 -3.40792 -29.6552 38.9669 69.1803 -46.7459 -136.833 45.3236 -33.2119 26.1094 29.2104 0.0434653 15.0247 -2.69627 -24.6991 -32.7844 -38.8193 -7.60229 60.961 -32.9994 13.7136 
